<svg id="Layer_4" data-name="Layer 4" xmlns="http://www.w3.org/2000/svg" xmlns:xlink="http://www.w3.org/1999/xlink" viewBox="0 0 474 241.29"><defs><style>.cls-1{fill:url(#linear-gradient);}.cls-2{fill:url(#linear-gradient-2);}.cls-3{fill:url(#linear-gradient-3);}</style><linearGradient id="linear-gradient" x1="189.06" y1="168.78" x2="294.41" y2="168.78" gradientUnits="userSpaceOnUse"><stop offset="0" stop-color="#243583"/><stop offset="0.42" stop-color="#236bb7"/><stop offset="0.8" stop-color="#2196e1"/><stop offset="1" stop-color="#21a6f1"/></linearGradient><linearGradient id="linear-gradient-2" x1="200.7" y1="204.66" x2="310.94" y2="204.66" xlink:href="#linear-gradient"/><linearGradient id="linear-gradient-3" x1="13" y1="331.8" x2="487" y2="331.8" xlink:href="#linear-gradient"/></defs><title>LogoQuantus2</title><path class="cls-1" d="M192.27,208.21c-1.7-5.11-7-23.15,1.46-43a59.17,59.17,0,0,1,17.46-22.91c22.56-17.87,50.88-12.39,55.32-11.46.64.39,5.26,3.26,5.83,8.59.44,4.16-1.87,7.21-2.92,8.6a16.23,16.23,0,0,1-8.73,5.73s-32,7.16-32,11.45c0,0,49.5-2.86,53.87-11.45,0,0,4.36-4.3,4.36-12.89,0,0,7.28,5.72,7.28,10,0,0,4.37,11.46-24.75,18.62,0,0-24.74,4.3-32,4.3,0,0-21.84,0-34.94,12.89C202.46,186.73,195.18,192.46,192.27,208.21Z" transform="translate(-13 -129.36)"/><path class="cls-2" d="M301.45,158.08s-8.73,20-43.67,24.35c0,0-33.48,2.86-40.76,8.59,0,0-18.93,7.16-16,28.65,0,0,4.37,17.18,14.56,21.48,0,0-17.47-34.37,17.47-41.53,0,0,46.58-8.6,49.5-12.89,0,0-2.92,8.59-34.94,17.18,0,0-23.29,5.73-23.29,24.35,0,0-1.46,24.35,27.66,22.92,0,0,32,0,46.58-22.92,0,0,16-18.62,11.65-51.56C310.19,176.7,307.27,163.81,301.45,158.08Z" transform="translate(-13 -129.36)"/><path class="cls-3" d="M86.42,366.09l-12,4.55-8.87-10a39.35,39.35,0,0,1-16.69,3.5,38.47,38.47,0,0,1-18.39-4.34,31.71,31.71,0,0,1-12.8-12.49,40.14,40.14,0,0,1,0-37.62,31.63,31.63,0,0,1,12.78-12.45A38.51,38.51,0,0,1,48.87,293a38.58,38.58,0,0,1,18.42,4.31,31.75,31.75,0,0,1,12.78,12.45,37.14,37.14,0,0,1,4.67,18.82q0,15.25-9.2,25ZM27.34,328.54q0,10.79,6,16.95t15.49,6.16q9.45,0,15.49-6.16t6-16.95q0-10.26-6.09-16.31a21,21,0,0,0-15.44-6,21,21,0,0,0-15.44,6Q27.34,318.27,27.34,328.54Z" transform="translate(-13 -129.36)"/><path class="cls-3" d="M124.35,364.17a35.83,35.83,0,0,1-10.67-1.51,25.36,25.36,0,0,1-8.56-4.53,20.31,20.31,0,0,1-5.77-7.91A28.39,28.39,0,0,1,97.26,339v-45h14.39V337q0,7.49,3.47,11a14,14,0,0,0,18.51,0q3.52-3.53,3.53-11V293.91h14.39v45a28.57,28.57,0,0,1-2.09,11.27,20.28,20.28,0,0,1-5.8,7.91,25.5,25.5,0,0,1-8.59,4.53A35.93,35.93,0,0,1,124.35,364.17Z" transform="translate(-13 -129.36)"/><path class="cls-3" d="M212.93,363.21l-5-14.29H178.78l-5,14.29H159l25.51-69.3h17.6l25.51,69.3ZM183,336.88h20.66l-10.31-29.39Z" transform="translate(-13 -129.36)"/><path class="cls-3" d="M285.39,293.91h14.34v69.3H283.09L252.4,313.67v49.54H238.06v-69.3h16.45l30.88,49.26Z" transform="translate(-13 -129.36)"/><path class="cls-3" d="M357.85,293.91v12.67H341.4v56.63H327.16V306.58H310.62V293.91Z" transform="translate(-13 -129.36)"/><path class="cls-3" d="M394.4,364.17a35.73,35.73,0,0,1-10.67-1.51,25.17,25.17,0,0,1-8.56-4.53,20.24,20.24,0,0,1-5.78-7.91A28.57,28.57,0,0,1,367.3,339v-45h14.39V337q0,7.49,3.47,11a12.42,12.42,0,0,0,9.24,3.5,12.55,12.55,0,0,0,9.28-3.52q3.52-3.53,3.52-11V293.91h14.39v45a28.57,28.57,0,0,1-2.09,11.27,20.18,20.18,0,0,1-5.8,7.91,25.5,25.5,0,0,1-8.59,4.53A35.86,35.86,0,0,1,394.4,364.17Z" transform="translate(-13 -129.36)"/><path class="cls-3" d="M461.1,364.17q-11.42,0-19.23-5.3A21.24,21.24,0,0,1,432.52,344l14.87-3.41a12.61,12.61,0,0,0,4.58,8.76,15.19,15.19,0,0,0,9.71,3,12.57,12.57,0,0,0,7.58-2.13,7.18,7.18,0,0,0,2.87-6.31,6.72,6.72,0,0,0-2.44-5.13,16,16,0,0,0-4.87-3.14q-2.42-.93-7.79-2.57c-.48-.16-.83-.27-1.06-.33q-2.73-.87-4.41-1.44c-1.12-.38-2.5-.92-4.15-1.61a27.87,27.87,0,0,1-4-2,29.45,29.45,0,0,1-3.33-2.5,13.09,13.09,0,0,1-2.78-3.18,17.1,17.1,0,0,1-1.68-4,17.43,17.43,0,0,1-.67-4.93,18.52,18.52,0,0,1,3.24-10.91,19.74,19.74,0,0,1,8.72-7,31.84,31.84,0,0,1,12.5-2.32,39.57,39.57,0,0,1,9,1,31.73,31.73,0,0,1,8.08,3.1,19.92,19.92,0,0,1,6.45,5.7,21.69,21.69,0,0,1,3.67,8.42l-13.91,3.45q-1.87-9.93-12.47-9.92a13.67,13.67,0,0,0-7.72,2,6.83,6.83,0,0,0-3,6.09c0,2.53,1.68,4.57,5,6.14a75,75,0,0,0,9.64,3.31c1.89.57,3.42,1.05,4.61,1.44s2.67.94,4.46,1.67a31.17,31.17,0,0,1,4.36,2.14,33,33,0,0,1,3.65,2.66,14.44,14.44,0,0,1,3.09,3.45,18.87,18.87,0,0,1,1.89,4.29,18,18,0,0,1,.77,5.35,20.94,20.94,0,0,1-1.39,7.82,17.17,17.17,0,0,1-3.81,5.9,22.22,22.22,0,0,1-5.73,4,28.21,28.21,0,0,1-7.05,2.4A41,41,0,0,1,461.1,364.17Z" transform="translate(-13 -129.36)"/></svg>